<?xml version="1.0" encoding="utf-8"?>
<!-- Generator: Adobe Illustrator 25.4.1, SVG Export Plug-In . SVG Version: 6.00 Build 0)  -->
<svg version="1.1" xmlns="http://www.w3.org/2000/svg" xmlns:xlink="http://www.w3.org/1999/xlink" x="0px" y="0px"
	 viewBox="0 0 1920 1080" style="enable-background:new 0 0 1920 1080;" xml:space="preserve">
<style type="text/css">
	.st0{fill:none;}
	.st1{fill:#DC6D49;}
	.st2{font-family:'EloquentJFPro-Regular';}
	.st3{font-size:123px;}
	.st4{fill:none;stroke:#DC6D49;stroke-width:7;stroke-linecap:round;stroke-miterlimit:10;}
	.st5{fill:none;stroke:#DC6D49;stroke-width:7;stroke-linecap:round;stroke-miterlimit:10;stroke-dasharray:24.7281,24.7281;}
	.st6{fill:none;stroke:#DC6D49;stroke-width:7;stroke-linecap:round;stroke-miterlimit:10;stroke-dasharray:24.4105,24.4105;}
	.st7{fill:#2C1209;}
	.st8{font-family:'NeuzeitGro-Reg';}
	.st9{font-size:44px;}
</style>
<g id="Layer_1">
</g>
<g id="Layer_2">
	<rect x="378.76" y="181.37" class="st0" width="734.26" height="549.44"/>
	<text transform="matrix(1 0 0 1 378.7632 279.6464)"><tspan x="0" y="0" class="st1 st2 st3">Hanging </tspan><tspan x="0" y="147.6" class="st1 st2 st3">by</tspan><tspan x="0" y="295.2" class="st1 st2 st3">a</tspan><tspan x="0" y="442.8" class="st1 st2 st3">thread</tspan></text>
	<g>
		<line class="st1" x1="364.05" y1="181.25" x2="364.05" y2="724.54"/>
		<g>
			<line class="st4" x1="364.05" y1="181.25" x2="364.05" y2="193.25"/>
			<line class="st5" x1="364.05" y1="217.98" x2="364.05" y2="700.17"/>
			<line class="st4" x1="364.05" y1="712.54" x2="364.05" y2="724.54"/>
		</g>
	</g>
	<g>
		<line class="st1" x1="1683.71" y1="6.35" x2="1683.71" y2="1080"/>
		<g>
			<line class="st4" x1="1683.71" y1="6.35" x2="1683.71" y2="18.35"/>
			<line class="st6" x1="1683.71" y1="42.76" x2="1683.71" y2="1055.79"/>
			<line class="st4" x1="1683.71" y1="1068" x2="1683.71" y2="1080"/>
		</g>
	</g>
	<g>
		<line class="st1" x1="1702.29" y1="6.35" x2="1702.29" y2="1080"/>
		<g>
			<line class="st4" x1="1702.29" y1="6.35" x2="1702.29" y2="18.35"/>
			<line class="st6" x1="1702.29" y1="42.76" x2="1702.29" y2="1055.79"/>
			<line class="st4" x1="1702.29" y1="1068" x2="1702.29" y2="1080"/>
		</g>
	</g>
	<g>
		<line class="st1" x1="345.34" y1="181.25" x2="345.34" y2="724.54"/>
		<g>
			<line class="st4" x1="345.34" y1="181.25" x2="345.34" y2="193.25"/>
			<line class="st5" x1="345.34" y1="217.98" x2="345.34" y2="700.17"/>
			<line class="st4" x1="345.34" y1="712.54" x2="345.34" y2="724.54"/>
		</g>
	</g>
</g>
<g id="Layer_3">
	<rect x="345.34" y="773.01" class="st0" width="740.96" height="116.12"/>
	<text transform="matrix(1 0 0 1 345.3389 802.3543)"><tspan x="0" y="0" class="st7 st8 st9">Visualizing the life of a garment </tspan><tspan x="0" y="52.8" class="st7 st8 st9">and its effects on the environment</tspan></text>
</g>
</svg>
